<?xml version="1.0" standalone="no"?>
<!DOCTYPE svg PUBLIC "-//W3C//DTD SVG 20010904//EN"
 "http://www.w3.org/TR/2001/REC-SVG-20010904/DTD/svg10.dtd">
<svg version="1.0" xmlns="http://www.w3.org/2000/svg"
 width="252.000000pt" height="84.000000pt" viewBox="0 0 252.000000 84.000000"
 preserveAspectRatio="xMidYMid meet">

<g transform="translate(0.000000,84.000000) scale(0.100000,-0.100000)"
fill="#000000" stroke="none">
<path d="M0 420 l0 -420 1260 0 1260 0 0 420 0 420 -1260 0 -1260 0 0 -420z
m995 85 c60 -24 72 -89 26 -136 -35 -35 -77 -38 -114 -9 -51 40 -42 120 17
146 38 16 31 17 71 -1z m190 1 c99 -42 52 -185 -53 -161 -94 20 -82 152 16
174 1 1 18 -5 37 -13z m319 -43 c10 -29 22 -50 27 -47 5 2 14 23 20 45 14 45
32 64 54 55 12 -4 15 -23 15 -86 0 -73 -2 -80 -20 -80 -17 0 -20 7 -21 43 l0
42 -19 -42 c-11 -24 -26 -43 -33 -43 -8 0 -24 24 -35 53 l-21 52 0 -52 c-1
-40 -5 -53 -16 -53 -12 0 -15 15 -15 78 0 43 3 82 7 86 17 17 39 -3 57 -51z
m259 -10 c14 -38 28 -76 32 -85 5 -14 2 -18 -13 -18 -11 0 -22 8 -25 20 -4 14
-14 20 -35 20 -22 0 -32 -6 -37 -20 -3 -11 -15 -20 -25 -20 -18 0 -18 5 10 81
17 44 30 82 30 85 0 2 8 4 19 4 14 0 25 -17 44 -67z m162 47 c20 -16 19 -69 0
-76 -13 -5 -12 -11 6 -40 21 -34 21 -34 0 -34 -12 0 -27 12 -38 30 -9 17 -21
30 -25 30 -4 0 -8 -13 -8 -30 0 -20 -5 -30 -15 -30 -12 0 -15 16 -15 86 l0 87
40 -6 c23 -3 47 -11 55 -17z m85 -17 l1 -38 33 39 c21 24 39 37 51 34 17 -3
16 -7 -12 -38 l-31 -34 29 -43 c34 -49 35 -53 12 -53 -10 0 -27 14 -38 30 -23
35 -39 34 -43 -3 -2 -15 -10 -27 -18 -27 -11 0 -14 18 -14 85 0 69 3 85 15 85
11 0 15 -11 15 -37z m-1556 21 c13 -5 16 -22 16 -82 l0 -76 -22 22 -22 22 -23
-22 -23 -21 0 75 c0 52 4 78 13 81 18 8 43 8 61 1z m377 -4 c20 -11 26 -45 9
-55 -6 -4 -4 -15 6 -30 29 -44 -12 -81 -82 -73 l-29 3 -3 83 -3 82 41 0 c23 0
50 -5 61 -10z m469 -22 l0 -32 33 32 c18 18 41 32 51 32 15 0 13 -6 -13 -35
l-31 -35 30 -42 c17 -22 30 -45 30 -50 0 -20 -30 -5 -54 27 -31 40 -46 38 -46
-6 0 -19 -5 -29 -15 -29 -12 0 -15 16 -15 85 0 69 3 85 15 85 10 0 15 -10 15
-32z"/>
<path d="M922 468 c-28 -28 -4 -98 34 -98 33 0 54 21 54 53 0 40 -15 57 -50
57 -14 0 -31 -5 -38 -12z"/>
<path d="M1112 468 c-17 -17 -15 -64 4 -82 21 -22 50 -20 74 4 24 24 25 38 4
68 -17 24 -62 30 -82 10z"/>
<path d="M1707 440 c-4 -15 0 -20 14 -20 21 0 22 1 13 24 -8 22 -21 20 -27 -4z"/>
<path d="M1860 459 c0 -15 5 -20 22 -17 34 5 37 38 4 38 -20 0 -26 -5 -26 -21z"/>
<path d="M760 465 c0 -21 27 -30 45 -15 19 16 10 30 -21 30 -15 0 -24 -6 -24
-15z"/>
<path d="M760 396 c0 -20 16 -29 40 -21 32 10 25 35 -10 35 -19 0 -30 -5 -30
-14z"/>
</g>
</svg>
